<svg xmlns="http://www.w3.org/2000/svg" viewBox="0 0 512 512">
  <rect width="512" height="512" fill="#04050b"/>
  <circle cx="352" cy="150" r="52" fill="#dceaff" opacity="0.92"/>
  <circle cx="352" cy="150" r="110" fill="#dceaff" opacity="0.07"/>
  <g fill="none" stroke="#dceaff" stroke-linecap="round">
    <line x1="52" y1="360" x2="460" y2="360" stroke-width="5" opacity="0.75"/>
  </g>
  <!-- jerboa, mid-jump -->
  <g transform="translate(196 344) scale(5.4 -5.4)" fill="#04050b" stroke="#dceaff" stroke-width="0.5" stroke-linejoin="round">
    <path d="M-8 9.6 C-9.6 15.4 -4.2 19.1 2 18.6 C6.1 18.3 8.6 16.6 9.6 14.6 C7.6 12.6 4 11.1 0 10.9 C-3 10.7 -6.1 10.3 -8 9.6 Z"/>
    <ellipse cx="-2.6" cy="9.6" rx="5.3" ry="5.5" transform="rotate(12 -2.6 9.6)"/>
    <ellipse cx="11" cy="15.2" rx="3.7" ry="3.2" transform="rotate(-8 11 15.2)"/>
    <ellipse cx="8.4" cy="21.6" rx="1.5" ry="4.7" transform="rotate(20 8.4 21.6)"/>
    <ellipse cx="9.8" cy="21.8" rx="1.5" ry="4.7" transform="rotate(11 9.8 21.8)"/>
    <path d="M-7.5 12 C-12.5 13.6 -16.5 12.8 -19.2 16.1" fill="none"/>
    <ellipse cx="-20.2" cy="17" rx="3.3" ry="1.9" transform="rotate(-24 -20.2 17)"/>
    <path d="M0.4 7.2 L1.6 4.8 M1.6 4.8 L9 5.6" fill="none" stroke-width="1.6"/>
  </g>
</svg>
